<svg xmlns="http://www.w3.org/2000/svg" viewBox="0 0 104.41 116.09"><defs><style>.cls-1{fill:#faeb7f;}</style></defs><g id="Layer_2" data-name="Layer 2"><g id="Layer_1-2" data-name="Layer 1"><path class="cls-1" d="M4.22,17.6c3.11.34,6.19.68,9.23.88.75,0,1.53.1,2.34.19l2.38.23c1.59.14,3.17.28,4.76.39,3.17.21,6.34-1.13,9.51-1s6.34,1.06,9.51,1.2,6.35-.31,9.53-.12l9.2.55c3.07.2,6.12,1.26,9.19,1.43S76,20.82,79.08,21s6.15.19,9.23.28a29,29,0,0,1,4.61.64l1.16.21.58.1.32,0,.55,0a2.41,2.41,0,0,1,.4,0l.18,0,.36.05c.23,0,.47.05.7.06l1.44.05.75.05h.21c-.25,1.67,2.17-14.53,1.14-7.68l0-.07.14-.6a3.66,3.66,0,0,1,.28-.81c.2-.38.28-.29,0-.13a3.28,3.28,0,0,1-.76.26,3.33,3.33,0,0,1-.59.09h-.38l-7.4.54h0v.1l.15,2.16a42.44,42.44,0,0,0,.53,4.32L93,22.93c0,.34.1.77.14,1.19l.1,1.25c.21,3.23-.67,6.41-.39,9.61l.91,9.54c.33,3.18,1,6.33,1.39,9.51s1.68,6.3,1.85,9.49.1,6.22.12,9.28-.27,6.11-.3,9.1,0,6.08,0,9.12-1,6.13-.55,9.16c.19,1.29,4.92,1.31,4.86,0a79.46,79.46,0,0,1-.15-9.26c.21-3.08,1.25-6.2,1.62-9.31s-.45-6.16-.17-9.29,1.64-6.34,1.78-9.49.37-6.35.35-9.49-1.08-6.21-1.1-9.35l-.07-9.39c0-3.13.77-6.28.81-9.39l.24-9.43a23.16,23.16,0,0,0-.11-2.36,3.83,3.83,0,0,0-.48-1.55,2.91,2.91,0,0,0-1.34-1.19,4.17,4.17,0,0,0-1.45-.3l-1.21-.07c-.8,0-1.6-.09-2.4-.16l-2.36-.22-2.27-.37c-1.54-.26-3.08-.54-4.61-.68-3.08-.29-6.12-1.72-9.2-2.07s-6.2,1.22-9.28.84-6.1-2.25-9.18-2.67-6.19.22-9.26-.21-6.37-1-9.57-1.37S35.4,1.82,32.2,1.47,25.79.2,22.58,0a19.14,19.14,0,0,0-4.8.52c-.8.16-1.6.32-2.4.46-.39.06-.79.12-1.19.16s-.85.1-1.27.12c-3.39.2-6.75.66-10.1,1.19a2.87,2.87,0,0,0-1.62.87L1,3.52l0,0H1c0-.2,0,.27,0,.22H1l-.09,0-.16,0,0,.28c0,.29,0,.61,0,1,0,1.39-.38,3.19-.54,5a8.4,8.4,0,0,0,.79,5.07,4.07,4.07,0,0,0,.76.94,4.45,4.45,0,0,0,.48.38c.1.05.07.12.12.17l.18.17A3,3,0,0,0,4.22,17.6Z" transform="translate(-0.21)"/><path class="cls-1" d="M99.1,99.2c-2.69-.32-5.51-.91-8.59-1.35l-2.36-.31-2.35-.28c-1.53-.17-3-.33-4.57-.47-3-.27-6.11,1-9.14.79s-6-1.2-9.08-1.43-6.07.16-9.09-.12l-8.74-.83c-2.9-.3-5.77-1.48-8.6-1.8s-5.82.23-8.78-.08-6-.47-9-.66a34.24,34.24,0,0,1-4.61-.74c-.28,0-.16-.07-.2-.11v-.1a.6.6,0,0,1,0-.19.5.5,0,0,1,0-.18h0a.47.47,0,0,1-.13.16c-.09.1-.21.17-.24.14a1.86,1.86,0,0,1-.42,0,.66.66,0,0,1-.27-.09c-.08,0-.15-.16-.19-.13s0,0,0,0v-.88c0-.38,0-.77.07-1.16.06-.78.16-1.56.26-2.34a22.24,22.24,0,0,0,.27-4.67l-.81-9.12c-.27-3-.91-5.91-1.09-8.82s-1.29-5.77-1.12-8.63.65-5.72,1-8.65,1-5.88,1.37-8.92a83.76,83.76,0,0,0,.42-9.42c0-3.12,1.09-6.18.72-9.08-.16-1.24-4.89-1.26-4.87,0a72.09,72.09,0,0,1,0,9.06c-.29,3.07-1.46,6.21-2.1,9.17s-.23,6-.91,9S3.5,52.79,3,55.76a75.58,75.58,0,0,0-1.07,9c-.14,3,.84,6,.83,9l0,9c0,3-.93,6-1,9-.11,3.21-.2,6.43-.22,9.78a5.06,5.06,0,0,0,.14,1.13,1.75,1.75,0,0,0,.37,1,2,2,0,0,0,1.11.14l1.16-.06c1.57-.07,3.17-.15,4.67-.08l.41,0c1.52.13,3.09.38,4.7.65,1.45.28,2.91.59,4.36.77,2.92.38,5.74,2,8.65,2.45s6-.87,8.93-.33,5.8,2.51,8.75,3,6,0,8.9.49l9.15,1.61c3.06.51,6.08,1.7,9.13,2.12s6.1,1.39,9.16,1.63a17.43,17.43,0,0,0,4.59-.43l2.19-.42a11.75,11.75,0,0,1,2.16-.16,57.44,57.44,0,0,0,10-.7,3.93,3.93,0,0,0,3-2.8,10.41,10.41,0,0,0,.23-5.12,16.5,16.5,0,0,0-1.62-4.87C100.94,100.23,100.12,99.32,99.1,99.2Z" transform="translate(-0.21)"/></g></g></svg>