<svg height='100px' width='100px'  fill="#000000" xmlns="http://www.w3.org/2000/svg" xmlns:xlink="http://www.w3.org/1999/xlink" version="1.1" x="0px" y="0px" viewBox="0 0 100 100" enable-background="new 0 0 100 100" xml:space="preserve"><g><g><path fill="#000000" d="M89.1,10.9C78-0.3,59.8-0.3,48.7,10.9l0,0L35.8,23.7c-0.3,0.3-0.6,0.6-0.9,0.9c6.2-1.8,12.8-1.7,18.9,0.3    l4.4-4.4l0,0c5.8-5.8,15.4-5.8,21.2,0c5.8,5.8,5.8,15.4,0,21.2l0,0l-4.4,4.4l-3.3,3.3l0,0l-5.1,5.1c-2.2,2.2-5,3.6-8,4.1    c0,0,0,0,0,0c-1.4,0.2-2.8,0.3-4.2,0.1c-3.3-0.3-6.5-1.8-9-4.3c-2.5-2.5-3.9-5.7-4.3-9c0,0,0,0,0,0c-1.8,0.5-3.5,1.4-4.9,2.8    l-6.6,6.6c1.4,3.4,3.5,6.5,6.2,9.2c2.7,2.7,5.9,4.8,9.2,6.2l0,0c1.4,0.6,2.9,1.1,4.4,1.4l0,0c6.6,1.6,13.7,0.8,19.9-2.5    c0,0,0,0,0,0c0,0,0,0,0,0c0,0,0,0,0,0c2.2-1.1,4.2-2.6,6.1-4.3c0.3-0.3,0.6-0.6,0.9-0.9l12.8-12.8l0,0    C100.3,40.2,100.3,22,89.1,10.9z M46.1,75.1l-4.4,4.4c-5.8,5.8-15.4,5.8-21.2,0c-5.8-5.8-5.8-15.4,0-21.2l4.4-4.4l3.3-3.3l0,0    l5.1-5.1l0,0c2.2-2.2,5-3.6,8-4.1c0,0,0,0,0,0c0,0,0,0,0,0c1.4-0.2,2.8-0.3,4.2-0.1c0,0,0,0,0,0c3.3,0.3,6.5,1.8,9,4.3    c2.5,2.5,3.9,5.7,4.3,9c1.8-0.5,3.5-1.4,4.9-2.8l6.6-6.6l0,0c-1.4-3.4-3.5-6.5-6.2-9.2c-2.7-2.7-5.9-4.8-9.2-6.2    c-1.4-0.6-2.9-1.1-4.4-1.4c-6.6-1.6-13.7-0.7-19.9,2.5c0,0,0,0,0,0c-2.2,1.1-4.2,2.6-6.1,4.3c-0.3,0.3-0.6,0.6-0.9,0.9l0,0    L10.9,48.7C-0.3,59.8-0.3,78,10.9,89.1c11.2,11.2,29.3,11.2,40.5,0l12.8-12.8c0.3-0.3,0.6-0.6,0.9-0.9    C58.9,77.1,52.2,77.1,46.1,75.1z"></path></g></g></svg>